<?xml version="1.0" standalone="no"?>
<!DOCTYPE svg PUBLIC "-//W3C//DTD SVG 20010904//EN"
 "http://www.w3.org/TR/2001/REC-SVG-20010904/DTD/svg10.dtd">
<svg version="1.0" xmlns="http://www.w3.org/2000/svg"
 width="512.000000pt" height="512.000000pt" viewBox="0 0 512.000000 512.000000"
 preserveAspectRatio="xMidYMid meet">

<g transform="translate(0.000000,512.000000) scale(0.100000,-0.100000)"
fill="#000000" stroke="none">
<path d="M3986 4745 c-44 -16 -149 -114 -167 -157 l-11 -28 -1812 -2 c-1768
-3 -1812 -3 -1850 -22 -50 -25 -97 -72 -122 -122 -19 -38 -19 -80 -19 -1959
l0 -1920 22 -41 c25 -48 81 -100 132 -123 33 -15 204 -16 1946 -16 l1910 0 47
23 c27 13 64 42 83 65 68 79 65 14 65 1323 l0 1183 73 21 c143 41 216 91 262
181 14 26 85 382 85 423 0 6 26 -15 58 -46 123 -122 232 -119 354 9 81 85 97
163 54 254 -9 20 -219 236 -474 490 -390 389 -463 457 -498 467 -53 15 -89 15
-138 -3z m102 -139 c15 -8 219 -208 455 -444 394 -397 427 -433 427 -464 0
-26 -9 -42 -37 -70 -45 -42 -68 -51 -93 -38 -10 5 -215 207 -456 447 -369 369
-437 442 -437 465 0 38 66 108 111 117 2 1 15 -5 30 -13z m-2956 -223 l3 -38
70 0 70 0 3 38 3 37 345 0 344 0 0 -40 0 -40 69 0 70 0 3 38 3 37 845 2 845 2
68 -74 c55 -60 64 -74 50 -79 -10 -3 -81 -14 -158 -26 -175 -26 -218 -36 -264
-59 -47 -24 -111 -94 -134 -146 -21 -48 -418 -1437 -413 -1443 3 -2 250 66
550 152 300 86 548 156 551 156 3 0 4 -526 3 -1170 l-3 -1170 -28 -27 -27 -28
-1895 0 -1895 0 -27 28 -28 27 -5 1873 c-3 1233 -2 1884 5 1907 6 21 23 43 44
57 l34 23 448 0 448 0 3 -37z m3158 -458 l215 -215 -39 -227 c-39 -235 -59
-300 -100 -327 -24 -15 -1005 -301 -1011 -294 -3 2 114 122 258 266 l262 262
40 -11 c77 -22 177 10 230 73 40 48 57 94 57 159 0 129 -102 231 -231 231 -65
0 -111 -17 -159 -57 -63 -53 -95 -153 -73 -230 l11 -40 -262 -262 c-144 -144
-264 -260 -266 -258 -6 5 267 954 285 992 27 58 68 74 297 114 116 20 225 38
241 38 26 1 57 -26 245 -214z"/>
<path d="M1130 4125 l0 -75 75 0 75 0 0 75 0 75 -75 0 -75 0 0 -75z"/>
<path d="M1970 4125 l0 -75 75 0 75 0 0 75 0 75 -75 0 -75 0 0 -75z"/>
<path d="M1130 3865 l0 -45 -40 0 -40 0 0 -75 0 -75 40 0 40 0 0 -1190 0
-1190 -40 0 -40 0 0 -75 0 -75 1060 0 1060 0 0 540 0 540 -75 0 -75 0 0 -45 0
-45 -450 0 -450 0 0 890 0 890 -75 0 -75 0 0 -45 0 -45 -345 0 -345 0 0 45 0
45 -75 0 -75 0 0 -45z m840 -1040 l0 -845 525 0 525 0 0 -345 0 -345 -870 0
-870 0 0 1190 0 1190 345 0 345 0 0 -845z"/>
<path d="M470 3745 l0 -75 75 0 75 0 0 75 0 75 -75 0 -75 0 0 -75z"/>
<path d="M760 3745 l0 -75 75 0 75 0 0 75 0 75 -75 0 -75 0 0 -75z"/>
<path d="M2220 3745 l0 -75 75 0 75 0 0 75 0 75 -75 0 -75 0 0 -75z"/>
<path d="M2510 3745 l0 -75 75 0 75 0 0 75 0 75 -75 0 -75 0 0 -75z"/>
<path d="M2800 3745 l0 -75 75 0 75 0 0 75 0 75 -75 0 -75 0 0 -75z"/>
<path d="M3020 2440 l0 -81 73 3 72 3 3 78 3 77 -76 0 -75 0 0 -80z"/>
<path d="M470 1215 l0 -75 75 0 75 0 0 75 0 75 -75 0 -75 0 0 -75z"/>
<path d="M760 1215 l0 -75 75 0 75 0 0 75 0 75 -75 0 -75 0 0 -75z"/>
<path d="M1130 985 l0 -75 75 0 75 0 0 75 0 75 -75 0 -75 0 0 -75z"/>
<path d="M3020 985 l0 -75 75 0 75 0 0 75 0 75 -75 0 -75 0 0 -75z"/>
<path d="M1130 695 l0 -75 75 0 75 0 0 75 0 75 -75 0 -75 0 0 -75z"/>
<path d="M3020 695 l0 -75 75 0 75 0 0 75 0 75 -75 0 -75 0 0 -75z"/>
</g>
</svg>
